<svg width="154" height="105" viewBox="0 0 154 105" fill="none" xmlns="http://www.w3.org/2000/svg">
<path d="M153.56 97.7821C153.884 98.2295 153.783 98.8547 153.336 99.1785L146.045 104.455C145.597 104.778 144.972 104.678 144.648 104.231C144.325 103.783 144.425 103.158 144.872 102.834L151.353 98.1445L146.663 91.6635C146.339 91.2161 146.44 90.5909 146.887 90.2671C147.334 89.9434 147.96 90.0436 148.283 90.491L153.56 97.7821ZM62.515 16.8964L62.9477 17.798L62.515 16.8964ZM110.521 85.3669L110.021 86.2329L110.521 85.3669ZM34.3755 33.9279L34.9166 33.087L34.3755 33.9279ZM106.021 50.1677L107.003 50.3558L106.021 50.1677ZM152.75 98.3683C152.591 99.3557 152.591 99.3557 152.591 99.3557C152.591 99.3557 152.591 99.3557 152.591 99.3556C152.59 99.3556 152.59 99.3555 152.589 99.3553C152.587 99.3551 152.585 99.3548 152.583 99.3543C152.577 99.3535 152.569 99.3522 152.559 99.3505C152.538 99.3471 152.507 99.342 152.466 99.3353C152.385 99.3219 152.265 99.302 152.109 99.2755C151.797 99.2224 151.338 99.1431 150.753 99.0376L151.108 97.0693C151.686 97.1736 152.137 97.2517 152.444 97.3037C152.597 97.3296 152.714 97.3491 152.792 97.362C152.831 97.3684 152.86 97.3732 152.88 97.3764C152.889 97.378 152.897 97.3791 152.901 97.3799C152.904 97.3803 152.905 97.3806 152.907 97.3807C152.907 97.3808 152.908 97.3809 152.908 97.3809V97.381C152.908 97.381 152.908 97.381 152.75 98.3683ZM147.105 98.3426C146.016 98.1248 144.795 97.8719 143.471 97.584L143.896 95.6296C145.208 95.915 146.418 96.1656 147.497 96.3814L147.105 98.3426ZM139.845 96.7637C138.686 96.4911 137.478 96.197 136.236 95.8814L136.729 93.943C137.958 94.2554 139.154 94.5467 140.303 94.8168L139.845 96.7637ZM132.641 94.931C131.463 94.607 130.267 94.2653 129.063 93.9058L129.636 91.9895C130.824 92.3445 132.006 92.6822 133.171 93.0025L132.641 94.931ZM125.508 92.796C124.327 92.4104 123.147 92.0077 121.98 91.5878L122.657 89.7059C123.804 90.1184 124.964 90.5147 126.129 90.8947L125.508 92.796ZM118.488 90.2626C117.314 89.7918 116.162 89.3023 115.044 88.7939L115.872 86.9733C116.96 87.4678 118.083 87.9456 119.232 88.4063L118.488 90.2626ZM111.671 87.1433C111.107 86.8457 110.557 86.5422 110.021 86.2329L111.021 84.5008C111.534 84.7969 112.062 85.0883 112.605 85.375L111.671 87.1433ZM110.021 86.2329C109.442 85.8985 108.854 85.5551 108.259 85.2031L109.277 83.4816C109.866 83.8301 110.448 84.17 111.021 84.5008L110.021 86.2329ZM104.726 83.0673C103.584 82.3624 102.421 81.6308 101.243 80.875L102.323 79.1917C103.492 79.9413 104.644 80.6667 105.776 81.3655L104.726 83.0673ZM97.8022 78.6262C96.6746 77.876 95.5377 77.1064 94.3958 76.3194L95.5307 74.6726C96.6635 75.4533 97.7914 76.2168 98.9101 76.9611L97.8022 78.6262ZM91.0262 73.9562C89.9157 73.1635 88.8042 72.3563 87.6959 71.5364L88.8852 69.9285C89.9843 70.7415 91.0865 71.542 92.1881 72.3283L91.0262 73.9562ZM84.4074 69.0587C83.3185 68.2227 82.2363 67.376 81.1646 66.5202L82.4125 64.9573C83.474 65.8049 84.5461 66.6438 85.6253 67.4723L84.4074 69.0587ZM77.9721 63.9171C76.9111 63.0332 75.8647 62.1416 74.8366 61.2443L76.1518 59.7375C77.1677 60.6243 78.2025 61.5059 79.2523 62.3805L77.9721 63.9171ZM71.7667 58.4952C70.741 57.5519 69.7393 56.604 68.7662 55.6537L70.1635 54.2228C71.1215 55.1583 72.1086 56.0924 73.1206 57.0231L71.7667 58.4952ZM65.8551 52.7121C64.883 51.6934 63.9483 50.6739 63.0566 49.6561L64.5609 48.3382C65.4325 49.333 66.3479 50.3315 67.302 51.3313L65.8551 52.7121ZM60.4046 46.4687C59.5213 45.3456 58.6973 44.2266 57.9404 43.115L59.5935 41.9894C60.322 43.0592 61.1186 44.1413 61.9767 45.2323L60.4046 46.4687ZM55.7316 39.5412C55.0226 38.2567 54.4163 36.9836 53.9275 35.7279L55.7913 35.0025C56.2434 36.1639 56.8101 37.3564 57.4826 38.5747L55.7316 39.5412ZM52.7522 31.6031C52.4949 30.1087 52.4409 28.6433 52.6246 27.223L54.6081 27.4795C54.4534 28.6756 54.495 29.9385 54.7232 31.2637L52.7522 31.6031ZM53.9867 22.999C54.656 21.768 55.5573 20.6159 56.6994 19.5505L58.0637 21.0129C57.0652 21.9443 56.3017 22.9282 55.7438 23.9543L53.9867 22.999ZM60.17 17.0071C60.7702 16.6562 61.4075 16.3187 62.0824 15.9948L62.9477 17.798C62.3186 18.0998 61.7296 18.412 61.1793 18.7338L60.17 17.0071ZM62.0824 15.9948C62.7458 15.6765 63.4075 15.3824 64.0672 15.112L64.8258 16.9625C64.2027 17.2179 63.5765 17.4962 62.9477 17.798L62.0824 15.9948ZM68.1768 13.7199C69.6148 13.3344 71.0377 13.059 72.4413 12.8866L72.6851 14.8717C71.3752 15.0326 70.0438 15.29 68.6946 15.6517L68.1768 13.7199ZM76.7905 12.6761C78.268 12.7153 79.7153 12.8676 81.1271 13.1232L80.7707 15.0912C79.458 14.8535 78.112 14.7118 76.7375 14.6754L76.7905 12.6761ZM85.3449 14.2227C86.727 14.6964 88.0637 15.27 89.349 15.9322L88.433 17.7101C87.2316 17.0911 85.9842 16.556 84.6965 16.1146L85.3449 14.2227ZM93.0652 18.1875C94.25 19.0227 95.3769 19.9363 96.4399 20.9171L95.0837 22.387C94.0834 21.4641 93.0245 20.6058 91.9129 19.8222L93.0652 18.1875ZM99.4341 24.0525C100.366 25.1597 101.229 26.3235 102.015 27.5327L100.339 28.6233C99.5966 27.4824 98.7831 26.3846 97.9041 25.3406L99.4341 24.0525ZM104.15 31.3034C104.786 32.6082 105.338 33.9487 105.801 35.3135L103.906 35.9551C103.472 34.6718 102.952 33.4095 102.352 32.1795L104.15 31.3034ZM106.919 39.51C107.198 40.9402 107.377 42.3843 107.447 43.8299L105.45 43.9278C105.384 42.5813 105.217 41.2326 104.956 39.8932L106.919 39.51ZM107.326 48.1916C107.248 48.9163 107.141 49.6383 107.003 50.3558L105.039 49.9796C105.166 49.317 105.265 48.6495 105.337 47.9783L107.326 48.1916ZM107.003 50.3558C106.859 51.1074 106.678 51.8183 106.46 52.4892L104.558 51.8715C104.749 51.2854 104.91 50.6556 105.039 49.9796L107.003 50.3558ZM104.404 56.4627C103.447 57.6938 102.284 58.6589 100.951 59.3814L99.998 57.6231C101.097 57.0274 102.044 56.2398 102.826 55.2348L104.404 56.4627ZM96.7352 60.8041C95.3752 61.0446 93.9239 61.1326 92.4014 61.0904L92.4568 59.0911C93.8694 59.1303 95.1829 59.0475 96.387 58.8346L96.7352 60.8041ZM88.1565 60.6799C86.8162 60.4686 85.4322 60.1818 84.0134 59.8287L84.4963 57.8879C85.8664 58.2288 87.1928 58.5033 88.468 58.7043L88.1565 60.6799ZM79.9535 58.6738C78.6563 58.2621 77.3362 57.8052 75.999 57.3091L76.6947 55.434C78.005 55.9202 79.2948 56.3664 80.5586 56.7675L79.9535 58.6738ZM72.1011 55.775C70.8333 55.249 69.5546 54.6936 68.2695 54.1133L69.0926 52.2905C70.3605 52.8631 71.6203 53.4102 72.8675 53.9277L72.1011 55.775ZM64.4917 52.3469C63.2478 51.7462 62.0016 51.1264 60.7571 50.4915L61.666 48.7099C62.8985 49.3387 64.1316 49.952 65.3614 50.5459L64.4917 52.3469ZM57.065 48.5626C55.84 47.9081 54.6202 47.2425 53.4095 46.5696L54.381 44.8214C55.5828 45.4893 56.7928 46.1496 58.0075 46.7985L57.065 48.5626ZM49.7877 44.5212C48.5768 43.8248 47.379 43.1247 46.1984 42.425L47.2181 40.7045C48.3917 41.4 49.5819 42.0957 50.7848 42.7875L49.7877 44.5212ZM42.629 40.2804C41.4249 39.5473 40.2444 38.8192 39.0922 38.1007L40.1505 36.4036C41.297 37.1186 42.4714 37.8429 43.669 38.572L42.629 40.2804ZM35.5748 35.8832C34.9846 35.5072 34.4043 35.1355 33.8344 34.7689L34.9166 33.087C35.484 33.4521 36.0619 33.8222 36.6494 34.1965L35.5748 35.8832ZM33.8344 34.7689C33.2728 34.4075 32.7183 34.043 32.1711 33.6756L33.2858 32.0151C33.8224 32.3753 34.366 32.7327 34.9166 33.087L33.8344 34.7689ZM28.913 31.3969C27.8263 30.6056 26.7711 29.8055 25.7474 29.0003L26.984 27.4284C27.9887 28.2187 29.0241 29.0038 30.0903 29.7801L28.913 31.3969ZM22.6716 26.4885C21.6398 25.6144 20.6446 24.7386 19.6858 23.8656L21.0322 22.3867C21.974 23.2442 22.9514 24.1043 23.9644 24.9626L22.6716 26.4885ZM16.796 21.1405C15.821 20.1883 14.8903 19.2453 14.0038 18.3175L15.4497 16.9358C16.3209 17.8475 17.2354 18.7741 18.1934 19.7096L16.796 21.1405ZM11.312 15.4017C10.3886 14.3662 9.52508 13.3602 8.72141 12.3933L10.2595 11.1149C11.0489 12.0647 11.8973 13.0531 12.8047 14.0706L11.312 15.4017ZM6.23666 9.29284C5.34147 8.13334 4.55288 7.06286 3.87065 6.10434L5.50007 4.9446C6.16805 5.8831 6.94122 6.93269 7.81975 8.07061L6.23666 9.29284ZM1.62964 2.79929C1.28262 2.25829 1.02154 1.83404 0.846228 1.54332C0.758573 1.39795 0.69235 1.28595 0.647543 1.20942C0.625145 1.17116 0.60809 1.14175 0.596391 1.12148C0.590537 1.11134 0.586029 1.10348 0.582851 1.09794C0.581262 1.09516 0.580014 1.09298 0.579095 1.09137C0.57863 1.09055 0.578262 1.0899 0.577964 1.08939C0.577822 1.08913 0.577696 1.08891 0.577583 1.08872C0.577535 1.08863 0.577495 1.08855 0.577453 1.08848C0.577424 1.08844 0.577401 1.08839 0.577393 1.08838C0.57737 1.08833 0.577342 1.08829 1.44653 0.593829C2.31573 0.0993659 2.31572 0.0993331 2.31569 0.0992916C2.31569 0.0992885 2.31566 0.099247 2.31566 0.0992322C2.31564 0.0991993 2.31563 0.0991696 2.3156 0.0991462C2.31559 0.0991133 2.31559 0.0991133 2.31561 0.099143C2.31565 0.0992173 2.31578 0.0994371 2.31598 0.0997938C2.31639 0.100519 2.31714 0.101829 2.31821 0.103708C2.32037 0.107469 2.32385 0.113539 2.32868 0.121884C2.3383 0.138571 2.35324 0.164348 2.3735 0.198958C2.41404 0.26819 2.47584 0.372743 2.55893 0.510537C2.72512 0.78614 2.97645 1.19467 3.31308 1.71946L1.62964 2.79929Z" fill="black"/>
</svg>
