<svg width="222" height="145" viewBox="0 0 222 145" fill="none" xmlns="http://www.w3.org/2000/svg">
<g clip-path="url(#clip0_155_205)">
<path d="M0.50313 23.21L1.00672 23.8002L1.00999 23.7969L1.02135 23.7855L1.0678 23.7389C1.10919 23.6975 1.1713 23.6356 1.25321 23.5546C1.41703 23.3926 1.66006 23.1541 1.97504 22.85C2.60505 22.2419 3.52269 21.3719 4.6701 20.3272C6.96574 18.2372 10.177 15.452 13.8419 12.6684C17.5089 9.8832 21.6161 7.11033 25.7045 5.03643C29.8038 2.95697 33.8248 1.61112 37.3354 1.61112C44.3271 1.61112 49.6524 6.94162 55.248 12.5981L55.3581 12.7094C60.8112 18.2221 66.542 24.0155 74.1677 24.0155C81.7934 24.0155 87.5242 18.2221 92.9773 12.7094L93.0874 12.5981C98.683 6.94162 104.008 1.61112 111 1.61112C117.992 1.61112 123.317 6.94162 128.913 12.5981L129.023 12.7094C134.476 18.2221 140.207 24.0155 147.832 24.0155C155.458 24.0155 161.189 18.2221 166.642 12.7094L166.752 12.5981C172.348 6.94162 177.673 1.61112 184.665 1.61112C188.175 1.61112 192.196 2.95697 196.296 5.03643C200.384 7.11033 204.491 9.8832 208.158 12.6684C211.823 15.452 215.034 18.2372 217.33 20.3272C218.477 21.3719 219.395 22.2419 220.025 22.85C220.34 23.1541 220.583 23.3926 220.747 23.5546C220.829 23.6356 220.891 23.6975 220.932 23.7389L220.979 23.7855L220.993 23.7996L221.497 23.21L221.953 22.6745C222 22.6194 222 22.6192 222 22.6192L221.996 22.6149L221.983 22.602L221.934 22.5525C221.89 22.5091 221.826 22.4452 221.742 22.3621C221.574 22.196 221.327 21.9531 221.007 21.6445C220.368 21.0274 219.439 20.1471 218.279 19.0913C215.961 16.9805 212.715 14.1647 209.005 11.3471C205.298 8.53123 201.113 5.703 196.921 3.57607C192.739 1.4547 188.488 0 184.665 0C177.039 0 171.308 5.79346 165.855 11.3062L165.745 11.4175C160.149 17.0739 154.824 22.4044 147.832 22.4044C140.841 22.4044 135.515 17.0739 129.92 11.4175L129.81 11.3062C124.356 5.79346 118.626 0 111 0C103.374 0 97.6435 5.79346 92.1904 11.3062L92.0803 11.4175C86.4847 17.0739 81.1594 22.4044 74.1677 22.4044C67.1759 22.4044 61.8507 17.0739 56.2551 11.4175L56.145 11.3062C50.6919 5.79344 44.9611 0 37.3354 0C33.5116 0 29.2613 1.4547 25.0794 3.57607C20.8865 5.703 16.7025 8.53123 12.995 11.3471C9.28543 14.1647 6.03909 16.9805 3.72066 19.0913C2.56104 20.1471 1.63255 21.0274 0.993198 21.6445C0.673497 21.9531 0.426025 22.196 0.258026 22.3621C0.174025 22.4452 0.109887 22.5091 0.066517 22.5525L0.0171509 22.602L0.000976602 22.6183C0.000976602 22.6183 -0.000386953 22.6197 0.50313 23.21Z" fill="#030303"/>
<path d="M0.50313 63.5386L1.00672 64.1288L1.00999 64.1255L1.02135 64.1141L1.0678 64.0675C1.10919 64.0261 1.1713 63.9642 1.25321 63.8832C1.41703 63.7211 1.66006 63.4826 1.97504 63.1786C2.60505 62.5705 3.52269 61.7005 4.6701 60.6558C6.96574 58.5658 10.177 55.7805 13.8419 52.997C17.5089 50.2118 21.6161 47.4389 25.7045 45.365C29.8038 43.2856 33.8248 41.9397 37.3354 41.9397C44.3271 41.9397 49.6524 47.2702 55.248 52.9267L55.3581 53.0379C60.8112 58.5507 66.542 64.3441 74.1677 64.3441C81.7934 64.3441 87.5242 58.5507 92.9773 53.0379L93.0874 52.9267C98.683 47.2702 104.008 41.9397 111 41.9397C117.992 41.9397 123.317 47.2702 128.913 52.9267L129.023 53.038C134.476 58.5507 140.207 64.3441 147.832 64.3441C155.458 64.3441 161.189 58.5507 166.642 53.038L166.752 52.9267C172.348 47.2702 177.673 41.9397 184.665 41.9397C188.175 41.9397 192.196 43.2856 196.296 45.365C200.384 47.4389 204.491 50.2118 208.158 52.997C211.823 55.7805 215.034 58.5658 217.33 60.6558C218.477 61.7005 219.395 62.5705 220.025 63.1786C220.34 63.4826 220.583 63.7211 220.747 63.8832C220.829 63.9642 220.891 64.0261 220.932 64.0675L220.979 64.1141L220.993 64.1282L221.497 63.5386C222 62.9482 222 62.9478 222 62.9478L221.996 62.9434L221.983 62.9306L221.934 62.8811C221.89 62.8377 221.826 62.7738 221.742 62.6907C221.574 62.5245 221.327 62.2817 221.007 61.9731C220.368 61.356 219.439 60.4757 218.279 59.4199C215.961 57.3091 212.715 54.4933 209.005 51.6757C205.298 48.8598 201.113 46.0316 196.921 43.9047C192.739 41.7833 188.488 40.3286 184.665 40.3286C177.039 40.3286 171.308 46.122 165.855 51.6348L165.745 51.746C160.149 57.4025 154.824 62.733 147.832 62.733C140.841 62.733 135.515 57.4025 129.92 51.746L129.81 51.6348C124.356 46.122 118.626 40.3286 111 40.3286C103.374 40.3286 97.6435 46.122 92.1904 51.6348L92.0803 51.746C86.4847 57.4025 81.1594 62.733 74.1677 62.733C67.1759 62.733 61.8507 57.4025 56.2551 51.746L56.145 51.6347C50.6919 46.122 44.9611 40.3286 37.3354 40.3286C33.5116 40.3286 29.2613 41.7833 25.0794 43.9047C20.8865 46.0316 16.7025 48.8598 12.995 51.6757C9.28543 54.4933 6.03909 57.3091 3.72066 59.4199C2.56104 60.4757 1.63255 61.356 0.993198 61.9731C0.673497 62.2817 0.426025 62.5245 0.258026 62.6907C0.174025 62.7738 0.109887 62.8377 0.066517 62.8811L0.0171509 62.9306L0.00436113 62.9434L0.000976602 62.9469C0.000976602 62.9469 -0.000386953 62.9482 0.50313 63.5386Z" fill="#030303"/>
<path d="M1.00668 104.457L0.503089 103.867C-0.000428438 103.277 1.23658e-09 103.276 1.23658e-09 103.276L0.00431962 103.272L0.0171094 103.259L0.0664755 103.21C0.109845 103.166 0.173983 103.102 0.257984 103.019C0.425983 102.853 0.673456 102.61 0.993156 102.302C1.63251 101.684 2.561 100.804 3.72062 99.7485C6.03905 97.6377 9.28539 94.8218 12.995 92.0043C16.7025 89.1884 20.8865 86.3602 25.0794 84.2332C29.2613 82.1119 33.5116 80.6572 37.3354 80.6572C44.9611 80.6572 50.6919 86.4506 56.145 91.9633L56.2551 92.0746C61.8507 97.7311 67.1759 103.061 74.1677 103.061C81.1594 103.061 86.4847 97.7311 92.0803 92.0746L92.1904 91.9634C97.6435 86.4506 103.374 80.6572 111 80.6572C118.626 80.6572 124.356 86.4506 129.81 91.9634L129.92 92.0746C135.515 97.7311 140.841 103.061 147.832 103.061C154.824 103.061 160.149 97.7311 165.745 92.0746L165.855 91.9634C171.308 86.4506 177.039 80.6572 184.665 80.6572C188.488 80.6572 192.739 82.1119 196.921 84.2332C201.113 86.3602 205.298 89.1884 209.005 92.0043C212.715 94.8218 215.961 97.6377 218.279 99.7485C219.439 100.804 220.368 101.684 221.007 102.302C221.327 102.61 221.574 102.853 221.742 103.019C221.826 103.102 221.89 103.166 221.934 103.21L221.983 103.259L221.999 103.275C221.999 103.275 222 103.277 221.497 103.867L220.993 104.457L220.99 104.454L220.979 104.443L220.932 104.396L220.902 104.366L220.842 104.306C220.814 104.278 220.782 104.247 220.747 104.212C220.583 104.05 220.34 103.811 220.025 103.507C219.395 102.899 218.477 102.029 217.33 100.984C215.034 98.8944 211.823 96.1091 208.158 93.3256C204.491 90.5404 200.384 87.7675 196.296 85.6936C192.196 83.6141 188.175 82.2683 184.665 82.2683C177.673 82.2683 172.348 87.5988 166.752 93.2552L166.642 93.3666C161.189 98.8793 155.458 104.673 147.832 104.673C140.207 104.673 134.476 98.8793 129.023 93.3666L128.913 93.2552C123.317 87.5988 117.992 82.2683 111 82.2683C104.008 82.2683 98.683 87.5988 93.0874 93.2552L92.9773 93.3665C87.5242 98.8793 81.7934 104.673 74.1677 104.673C66.542 104.673 60.8112 98.8793 55.3581 93.3665L55.248 93.2552C49.6524 87.5988 44.3271 82.2683 37.3354 82.2683C33.8248 82.2683 29.8038 83.6141 25.7045 85.6936C21.6161 87.7675 17.5089 90.5404 13.8419 93.3256C10.177 96.1091 6.9657 98.8944 4.67006 100.984C3.52265 102.029 2.60501 102.899 1.975 103.507C1.66002 103.811 1.41699 104.05 1.25317 104.212C1.17126 104.293 1.10915 104.355 1.06776 104.396L1.02131 104.443L1.00668 104.457Z" fill="#030303"/>
<path d="M0.50313 144.194L1.00672 144.785L1.02135 144.77L1.0678 144.723C1.10919 144.682 1.1713 144.62 1.25321 144.539C1.41703 144.377 1.66006 144.139 1.97504 143.835C2.60505 143.226 3.52269 142.356 4.6701 141.312C6.96574 139.222 10.177 136.436 13.8419 133.653C17.5089 130.868 21.6161 128.095 25.7045 126.021C29.8038 123.941 33.8248 122.596 37.3354 122.596C44.3271 122.596 49.6524 127.926 55.248 133.583L55.3581 133.694C60.8112 139.207 66.542 145 74.1677 145C81.7934 145 87.5242 139.207 92.9773 133.694L93.0874 133.583C98.683 127.926 104.008 122.596 111 122.596C117.992 122.596 123.317 127.926 128.913 133.583L129.023 133.694C134.476 139.207 140.207 145 147.832 145C155.458 145 161.189 139.207 166.642 133.694L166.752 133.583C172.348 127.926 177.673 122.596 184.665 122.596C188.175 122.596 192.196 123.941 196.296 126.021C200.384 128.095 204.491 130.868 208.158 133.653C211.823 136.436 215.034 139.222 217.33 141.312C218.477 142.356 219.395 143.226 220.025 143.835C220.34 144.139 220.583 144.377 220.747 144.539C220.829 144.62 220.891 144.682 220.932 144.723L220.979 144.77L220.99 144.781L220.993 144.784L221.497 144.194C222 143.604 222 143.604 222 143.604L221.996 143.599L221.983 143.586L221.934 143.537C221.89 143.494 221.826 143.43 221.742 143.347C221.574 143.18 221.327 142.938 221.007 142.629C220.368 142.012 219.439 141.132 218.279 140.076C215.961 137.965 212.715 135.149 209.005 132.332C205.298 129.516 201.113 126.687 196.921 124.561C192.739 122.439 188.488 120.984 184.665 120.984C177.039 120.984 171.308 126.778 165.855 132.291L165.745 132.402C160.149 138.058 154.824 143.389 147.832 143.389C140.841 143.389 135.515 138.058 129.92 132.402L129.81 132.291C124.356 126.778 118.626 120.984 111 120.984C103.374 120.984 97.6435 126.778 92.1904 132.291L92.0803 132.402C86.4847 138.058 81.1594 143.389 74.1677 143.389C67.1759 143.389 61.8507 138.058 56.2551 132.402L56.145 132.291C50.6919 126.778 44.9611 120.984 37.3354 120.984C33.5116 120.984 29.2613 122.439 25.0794 124.561C20.8865 126.687 16.7025 129.516 12.995 132.332C9.28543 135.149 6.03909 137.965 3.72066 140.076C2.56104 141.132 1.63255 142.012 0.993198 142.629C0.673497 142.938 0.426025 143.18 0.258026 143.347C0.174025 143.43 0.109887 143.494 0.066517 143.537L0.0171509 143.586L0.00436113 143.599L0.000976602 143.603C0.000976602 143.603 -0.000386953 143.604 0.50313 144.194Z" fill="#030303"/>
</g>
<defs>
<clipPath id="clip0_155_205">
<rect width="222" height="145" fill="white"/>
</clipPath>
</defs>
</svg>
